# xmcd CD database file
#
# Track frame offsets:
#	150
#	24980
#	46522
#	75797
#	94212
#	113247
#	135797
#
# Disc length: 2286 seconds
#
# Revision: 0
# Processed by: cddbd v1.5PL3 Copyright (c) Steve Scherf et al.
# Submitted via: CDex 1.50
#
DISCID=3c08ec07
DTITLE=Hal Galper - Dreamsville
DYEAR=1986
DGENRE=Jazz
TTITLE0=Once I Loved
TTITLE1=Surrey With A Fringe On Top
TTITLE2=Dreamsville
TTITLE3=Don't Blame Me
TTITLE4=High Fly
TTITLE5=Lament
TTITLE6=Sweet Pumpkin
EXTD=YEAR: 1986
EXTT0=
EXTT1=
EXTT2=
EXTT3=
EXTT4=
EXTT5=
EXTT6=
PLAYORDER=
